<svg xmlns="http://www.w3.org/2000/svg" style="display:none">
  <symbol id="icon-grid" viewBox="0 0 24 24" fill="none" stroke="currentColor" stroke-width="1.8" stroke-linecap="round" stroke-linejoin="round">
    <rect x="3" y="3" width="7" height="7" rx="1.5"/>
    <rect x="14" y="3" width="7" height="7" rx="1.5"/>
    <rect x="3" y="14" width="7" height="7" rx="1.5"/>
    <rect x="14" y="14" width="7" height="7" rx="1.5"/>
  </symbol>
  <symbol id="icon-bolt" viewBox="0 0 24 24" fill="none" stroke="currentColor" stroke-width="1.8" stroke-linecap="round" stroke-linejoin="round">
    <path d="M13 2 4 14h6l-1 8 9-12h-6l1-8Z"/>
  </symbol>
  <symbol id="icon-palette" viewBox="0 0 24 24" fill="none" stroke="currentColor" stroke-width="1.8" stroke-linecap="round" stroke-linejoin="round">
    <path d="M12 3a9 9 0 1 0 0 18c.9 0 1.5-.7 1.5-1.5 0-.4-.15-.75-.4-1.05-.25-.3-.4-.65-.4-1.05 0-.83.67-1.5 1.5-1.5H16a4 4 0 0 0 4-4c0-4.97-3.58-9-8-9Z"/>
    <circle cx="7.5" cy="10.5" r="1"/>
    <circle cx="11" cy="7" r="1"/>
    <circle cx="15.5" cy="8.5" r="1"/>
  </symbol>
  <symbol id="icon-puzzle" viewBox="0 0 24 24" fill="none" stroke="currentColor" stroke-width="1.8" stroke-linecap="round" stroke-linejoin="round">
    <path d="M9 3h3v2.5a1.5 1.5 0 0 0 3 0V3h3a1 1 0 0 1 1 1v3h-2.5a1.5 1.5 0 0 0 0 3H19v3a1 1 0 0 1-1 1h-3v-2.5a1.5 1.5 0 0 0-3 0V14H9a1 1 0 0 1-1-1v-3H5.5a1.5 1.5 0 0 1 0-3H8V4a1 1 0 0 1 1-1Z"/>
  </symbol>
  <symbol id="icon-code" viewBox="0 0 24 24" fill="none" stroke="currentColor" stroke-width="1.8" stroke-linecap="round" stroke-linejoin="round">
    <path d="m8 6-5.5 6L8 18"/>
    <path d="m16 6 5.5 6L16 18"/>
    <path d="m13.5 4-3 16"/>
  </symbol>
</svg>
